<?xml version="1.0" encoding="utf-8"?>
<!-- Generator: Adobe Illustrator 17.0.0, SVG Export Plug-In . SVG Version: 6.00 Build 0)  -->
<!DOCTYPE svg PUBLIC "-//W3C//DTD SVG 1.1//EN" "http://www.w3.org/Graphics/SVG/1.1/DTD/svg11.dtd">
<svg version="1.1" id="Layer_1" xmlns="http://www.w3.org/2000/svg" xmlns:xlink="http://www.w3.org/1999/xlink" x="0px" y="0px"
	 width="180px" height="60px" viewBox="0 0 1057 294" enable-background="new 0 0 1057 294" xml:space="preserve">
<g>
	<g>
		<path fill="#40AEEB" d="M264.402,155.398c-2.996,2.778-6.339,5.094-9.855,7.141c-8.129,4.741-16.906,7.494-26.292,8.238
			c-7.025,0.558-14.07,0.359-21.109,0.372c-16.611,0.032-33.228,0.045-49.839-0.051c-4.286-0.026-8.578,0.045-12.858-0.327
			c-10.734-0.93-20.332-4.594-28.313-11.947c-8.373-7.712-14.115-17.053-16.187-28.326c-2.919-15.886,0.815-30.097,11.581-42.281
			c5.845-6.615,12.813-11.696,21.218-14.628c6.904-2.406,13.993-3.022,21.237-2.149c6.672,0.809,13.082,2.502,19.055,5.64
			c8.642,4.536,15.02,11.356,19.748,19.8c1.142,2.04,2.316,4.074,2.829,6.409c1.052,4.818-1.392,9.464-5.98,11.33
			c-4.408,1.796-9.675,0.09-12.12-3.952c-0.34-0.558-0.648-1.168-0.815-1.79c-1.405-5.203-4.613-9.085-8.905-12.171
			c-5.518-3.965-11.555-6.538-18.452-6.467c-14.327,0.141-27.216,9.438-30.405,24.823c-3.522,17.002,8.193,33.677,25.407,36.359
			c2.002,0.314,4.023,0.314,6.031,0.321c11.439,0.038,22.886,0.128,34.325-0.013c12.941-0.16,25.882-0.058,38.829-0.083
			c10.066-0.019,18.85-3.375,26.678-9.528c0.834-0.655,1.655-1.328,2.483-1.989c0.513,0.116,0.776,0.533,1.059,0.905
			c3.311,4.388,6.679,8.726,9.99,13.108C264.037,154.538,264.402,154.872,264.402,155.398z"/>
		<path fill="#F1C40F" d="M264.402,155.398c-3.901-5.081-7.802-10.169-11.703-15.251c2.701-2.637,5.306-5.351,7.423-8.508
			c3.869-5.768,6.05-12.139,6.929-18.998c0.796-6.204,0.642-12.344-1.001-18.407c-2.213-8.148-6.705-14.898-12.793-20.646
			c-4.716-4.453-10.028-7.956-16.2-10.073c-6.557-2.246-13.287-2.81-20.146-1.976c-1.816,0.218-3.625,0.513-5.447,0.635
			c-2.759,0.186-4.818-1.103-6.198-3.407c-1.841-3.08-3.734-6.121-5.839-9.034c-0.032-0.545,0.423-0.744,0.751-1.001
			c2.554-2.015,5.422-3.484,8.418-4.703c2.483-1.014,5.069-1.713,7.686-2.284c0.507-0.109,1.007-0.192,1.508,0.026
			c2.669,0.199,5.344,0.058,8.02,0.212c15.154,0.873,28.365,6.39,39.689,16.463c11.645,10.355,18.555,23.393,20.762,38.682
			c2.765,19.1-2.322,36.192-14.615,51.096C269.477,150.843,267.084,153.274,264.402,155.398z"/>
		<path fill="#00C3B6" d="M217.79,41.759c-6.737,1.245-13.037,3.497-18.369,7.969c-3.086-3.779-6.39-7.359-10.233-10.394
			c-10.246-8.078-21.75-13.14-34.864-13.82c-26.004-1.347-45.874,9.213-59.642,31.297c-0.096,0.154-0.212,0.295-0.321,0.443
			c-1.347-0.231-2.329-1.174-3.471-1.796c-4.35-2.374-8.873-4.299-13.698-5.479c-0.43-0.103-0.975-0.064-1.181-0.629
			c0.809-0.038,1.059-0.686,1.386-1.251c4.241-7.391,9.354-14.115,15.629-19.902c12.222-11.279,26.466-18.702,42.935-21.115
			c29.147-4.279,54.041,4.337,74.386,25.76c2.175,2.291,4.119,4.773,5.928,7.365C216.693,40.809,217.155,41.361,217.79,41.759z"/>
		<path fill="#FF574D" d="M76.005,49.356c4.677,1.129,9.168,2.778,13.429,5.011c1.687,0.885,3.356,1.796,4.921,2.894
			c-1.777,3.413-3.336,6.916-4.857,10.452c-1.264,2.939-4.055,4.17-7.173,3.387c-2.906-0.731-5.691-1.88-8.629-2.541
			c-25.311-5.665-46.053,11.664-50.481,31.65c-0.994,4.504-3.721,7.089-8.199,7.891c-6.057,1.084-11.992-4.812-10.83-10.862
			c1.905-9.945,6.114-18.85,12.652-26.594c8.398-9.951,18.696-17.047,31.406-20.332c8.321-2.149,16.758-2.733,25.285-1.45
			C74.362,48.983,75.184,49.189,76.005,49.356z"/>
	</g>
</g>
<g id="Cloudify_logo_2021_Updated_6_" transform="translate(-49 -20)">
	<g enable-background="new    ">
		<path fill="#383838" d="M435.78,25.315c35.924,0,65.126,19.236,76.019,52.379h-37.314c-7.647-15.528-21.554-23.176-38.937-23.176
			c-28.275,0-48.438,20.627-48.438,53.538c0,32.679,20.163,53.538,48.438,53.538c17.383,0,31.289-7.648,38.937-23.408h37.314
			c-10.893,33.374-40.095,52.379-76.019,52.379c-46.585,0-82.046-34.069-82.046-82.509C353.734,59.617,389.195,25.315,435.78,25.315
			z"/>
	</g>
	<g enable-background="new    ">
		<path fill="#383838" d="M519.002,55.776h25.237v133.398h-25.237V55.776z"/>
		<path fill="#383838" d="M608.055,190.796c-28.843,0-50.655-20.189-50.655-51.556c0-31.547,22.533-51.557,51.376-51.557
			s51.377,20.01,51.377,51.557C660.153,170.606,637.079,190.796,608.055,190.796z M608.055,168.804
			c13.34,0,26.139-9.734,26.139-29.564c0-20.01-12.438-29.564-25.778-29.564s-25.417,9.554-25.417,29.564
			C582.999,159.069,594.536,168.804,608.055,168.804z"/>
		<path fill="#383838" d="M767.592,189.174h-25.418v-12.619c-6.31,8.473-17.306,13.881-29.744,13.881
			c-23.255,0-40.02-15.143-40.02-42.543V89.306h25.237v54.981c0,16.044,8.833,24.697,22.173,24.697
			c13.7,0,22.354-8.653,22.354-24.697V89.306h25.418V189.174z"/>
		<path fill="#383838" d="M826.362,87.683c13.16,0,25.778,6.129,32.629,15.503V55.776h25.598v133.398h-25.598v-14.782
			c-5.949,9.194-17.126,16.404-32.809,16.404c-25.418,0-45.607-20.73-45.607-51.917C780.575,107.693,800.764,87.683,826.362,87.683z
			 M832.672,109.856c-13.52,0-26.319,10.095-26.319,29.023s12.8,29.744,26.319,29.744c13.881,0,26.499-10.455,26.499-29.383
			S846.552,109.856,832.672,109.856z"/>
		<path fill="#383838" d="M901.175,62.626c0-8.292,6.489-14.782,15.503-14.782c8.833,0,15.503,6.49,15.503,14.782
			c0,8.292-6.67,14.782-15.503,14.782C907.665,77.408,901.175,70.918,901.175,62.626z M903.88,89.306h25.237v99.868H903.88V89.306z"
			/>
		<path fill="#383838" d="M951.292,110.037h-11.357V89.306h11.357v-5.047c0-24.517,13.881-35.873,42.002-35.152v21.271
			c-12.258-0.36-16.404,3.605-16.404,14.782v4.146h17.486v20.731h-17.486v79.137h-25.598V110.037z"/>
		<path fill="#383838" d="M1074.052,89.306h26.86l-61.832,147.099h-26.859l21.632-49.754l-40.02-97.345h28.302l25.778,69.764
			L1074.052,89.306z"/>
	</g>
</g>
<g>
	<g>
		<path fill="#EF4136" d="M8.743,278.027v-44.492h7.273v44.492H8.743z"/>
		<path fill="#EF4136" d="M55.366,278.027h-7.182v-20.755c0-2.576-0.487-4.499-1.461-5.767c-0.974-1.269-2.495-1.902-4.565-1.902
			c-2.759,0-4.782,0.897-6.071,2.693c-1.288,1.795-1.932,4.783-1.932,8.962v16.769h-7.152v-33.658h5.6l1.005,4.412h0.365
			c0.933-1.602,2.287-2.84,4.063-3.712s3.728-1.309,5.858-1.309c5.173,0,8.602,1.765,10.286,5.295h0.486
			c0.994-1.663,2.395-2.962,4.2-3.896c1.806-0.933,3.875-1.399,6.208-1.399c4.018,0,6.943,1.015,8.78,3.043
			c1.836,2.029,2.754,5.123,2.754,9.282v21.941h-7.151v-20.755c0-2.576-0.492-4.499-1.477-5.767
			c-0.984-1.269-2.511-1.902-4.58-1.902c-2.779,0-4.813,0.867-6.102,2.602c-1.289,1.735-1.933,4.397-1.933,7.989V278.027z"/>
		<path fill="#EF4136" d="M103.663,278.636c-4.261,0-7.568-1.531-9.921-4.595h-0.427c0.284,2.841,0.427,4.564,0.427,5.173V293
			h-7.152v-48.631h5.782c0.162,0.629,0.497,2.13,1.005,4.504h0.365c2.231-3.408,5.579-5.112,10.042-5.112
			c4.2,0,7.472,1.521,9.814,4.564c2.344,3.043,3.516,7.314,3.516,12.813s-1.192,9.789-3.576,12.872
			C111.154,277.095,107.862,278.636,103.663,278.636z M101.927,249.604c-2.84,0-4.914,0.832-6.223,2.495
			c-1.309,1.664-1.963,4.321-1.963,7.974v1.065c0,4.098,0.648,7.065,1.947,8.901c1.298,1.836,3.419,2.754,6.36,2.754
			c2.476,0,4.383-1.015,5.722-3.043c1.339-2.029,2.008-4.92,2.008-8.674c0-3.773-0.664-6.629-1.993-8.566
			S104.504,249.604,101.927,249.604z"/>
		<path fill="#EF4136" d="M132.574,278.027h-7.152v-47.353h7.152V278.027z"/>
		<path fill="#EF4136" d="M157.498,278.636c-5.234,0-9.327-1.526-12.279-4.58c-2.952-3.053-4.428-7.258-4.428-12.614
			c0-5.498,1.369-9.819,4.108-12.964c2.738-3.145,6.502-4.717,11.29-4.717c4.443,0,7.953,1.349,10.529,4.047
			c2.577,2.699,3.865,6.411,3.865,11.139v3.865h-22.429c0.102,3.267,0.983,5.777,2.647,7.531c1.663,1.756,4.007,2.633,7.03,2.633
			c1.988,0,3.839-0.188,5.554-0.563c1.714-0.375,3.556-0.999,5.523-1.871v5.813c-1.745,0.832-3.51,1.42-5.295,1.765
			C161.829,278.464,159.79,278.636,157.498,278.636z M156.189,249.178c-2.272,0-4.093,0.72-5.463,2.16
			c-1.369,1.441-2.187,3.541-2.449,6.3h15.276c-0.04-2.779-0.71-4.885-2.008-6.314C160.247,249.893,158.462,249.178,156.189,249.178
			z"/>
		<path fill="#EF4136" d="M207.072,278.027h-7.182v-20.755c0-2.576-0.487-4.499-1.461-5.767c-0.974-1.269-2.495-1.902-4.565-1.902
			c-2.759,0-4.782,0.897-6.071,2.693c-1.288,1.795-1.932,4.783-1.932,8.962v16.769h-7.152v-33.658h5.6l1.005,4.412h0.365
			c0.933-1.602,2.287-2.84,4.063-3.712s3.728-1.309,5.858-1.309c5.173,0,8.602,1.765,10.286,5.295h0.486
			c0.994-1.663,2.395-2.962,4.2-3.896c1.806-0.933,3.875-1.399,6.208-1.399c4.018,0,6.943,1.015,8.78,3.043
			c1.836,2.029,2.754,5.123,2.754,9.282v21.941h-7.151v-20.755c0-2.576-0.492-4.499-1.477-5.767
			c-0.984-1.269-2.511-1.902-4.58-1.902c-2.779,0-4.813,0.867-6.102,2.602c-1.289,1.735-1.933,4.397-1.933,7.989V278.027z"/>
		<path fill="#EF4136" d="M252.995,278.636c-5.234,0-9.327-1.526-12.279-4.58c-2.952-3.053-4.428-7.258-4.428-12.614
			c0-5.498,1.369-9.819,4.108-12.964c2.738-3.145,6.502-4.717,11.29-4.717c4.443,0,7.953,1.349,10.529,4.047
			c2.577,2.699,3.865,6.411,3.865,11.139v3.865h-22.429c0.102,3.267,0.983,5.777,2.647,7.531c1.663,1.756,4.007,2.633,7.03,2.633
			c1.988,0,3.839-0.188,5.554-0.563c1.714-0.375,3.556-0.999,5.523-1.871v5.813c-1.745,0.832-3.51,1.42-5.295,1.765
			C257.326,278.464,255.287,278.636,252.995,278.636z M251.686,249.178c-2.272,0-4.093,0.72-5.463,2.16
			c-1.369,1.441-2.187,3.541-2.449,6.3h15.276c-0.04-2.779-0.71-4.885-2.008-6.314C255.744,249.893,253.959,249.178,251.686,249.178
			z"/>
		<path fill="#EF4136" d="M303.817,278.027h-7.183v-20.694c0-2.597-0.522-4.534-1.566-5.813c-1.046-1.278-2.704-1.917-4.977-1.917
			c-3.022,0-5.234,0.893-6.634,2.678c-1.4,1.786-2.1,4.778-2.1,8.978v16.769h-7.152v-33.658h5.6l1.005,4.412h0.365
			c1.014-1.602,2.454-2.84,4.321-3.712c1.866-0.872,3.936-1.309,6.208-1.309c8.074,0,12.112,4.108,12.112,12.325V278.027z"/>
		<path fill="#EF4136" d="M326.306,272.854c1.745,0,3.49-0.273,5.234-0.821v5.387c-0.791,0.345-1.811,0.634-3.058,0.867
			c-1.248,0.232-2.541,0.35-3.881,0.35c-6.776,0-10.164-3.57-10.164-10.712v-18.138h-4.596v-3.165l4.931-2.617l2.435-7.121h4.412
			v7.486h9.587v5.417h-9.587v18.016c0,1.725,0.432,2.998,1.294,3.819C323.776,272.443,324.907,272.854,326.306,272.854z"/>
	</g>
</g>
<g enable-background="new    ">
	<path fill="#FFB000" d="M411.817,278.027v-44.492h7.273v44.492H411.817z"/>
	<path fill="#FFB000" d="M459.688,278.027h-7.183v-20.694c0-2.597-0.522-4.534-1.566-5.813c-1.046-1.278-2.704-1.917-4.977-1.917
		c-3.022,0-5.234,0.893-6.634,2.678c-1.4,1.786-2.1,4.778-2.1,8.978v16.769h-7.152v-33.658h5.6l1.005,4.412h0.365
		c1.014-1.602,2.454-2.84,4.321-3.712c1.866-0.872,3.936-1.309,6.208-1.309c8.074,0,12.112,4.108,12.112,12.325V278.027z"/>
	<path fill="#FFB000" d="M482.177,272.854c1.745,0,3.49-0.273,5.234-0.821v5.387c-0.791,0.345-1.811,0.634-3.058,0.867
		c-1.248,0.232-2.541,0.35-3.881,0.35c-6.776,0-10.164-3.57-10.164-10.712v-18.138h-4.596v-3.165l4.931-2.617l2.435-7.121h4.412
		v7.486h9.587v5.417h-9.587v18.016c0,1.725,0.432,2.998,1.294,3.819C479.647,272.443,480.778,272.854,482.177,272.854z"/>
	<path fill="#FFB000" d="M508.837,278.636c-5.234,0-9.327-1.526-12.279-4.58c-2.952-3.053-4.428-7.258-4.428-12.614
		c0-5.498,1.369-9.819,4.108-12.964c2.738-3.145,6.502-4.717,11.29-4.717c4.443,0,7.953,1.349,10.529,4.047
		c2.577,2.699,3.865,6.411,3.865,11.139v3.865h-22.429c0.102,3.267,0.983,5.777,2.647,7.531c1.663,1.756,4.007,2.633,7.03,2.633
		c1.988,0,3.839-0.188,5.554-0.563c1.714-0.375,3.556-0.999,5.523-1.871v5.813c-1.745,0.832-3.51,1.42-5.295,1.765
		C513.168,278.464,511.129,278.636,508.837,278.636z M507.528,249.178c-2.272,0-4.093,0.72-5.463,2.16
		c-1.369,1.441-2.187,3.541-2.449,6.3h15.276c-0.04-2.779-0.71-4.885-2.008-6.314C511.586,249.893,509.8,249.178,507.528,249.178z"
		/>
	<path fill="#FFB000" d="M558.472,244.369v3.926l-5.752,1.065c0.527,0.71,0.963,1.582,1.309,2.617
		c0.345,1.034,0.517,2.13,0.517,3.286c0,3.47-1.197,6.198-3.591,8.187s-5.69,2.982-9.891,2.982c-1.075,0-2.049-0.081-2.921-0.243
		c-1.542,0.953-2.313,2.069-2.313,3.348c0,0.771,0.36,1.349,1.081,1.734c0.72,0.386,2.043,0.578,3.971,0.578h5.874
		c3.713,0,6.532,0.791,8.46,2.374c1.928,1.582,2.892,3.864,2.892,6.847c0,3.814-1.573,6.756-4.718,8.826
		c-3.145,2.069-7.689,3.104-13.634,3.104c-4.585,0-8.085-0.812-10.499-2.435s-3.621-3.937-3.621-6.938
		c0-2.069,0.654-3.81,1.963-5.219c1.309-1.41,3.139-2.39,5.493-2.938c-0.954-0.405-1.74-1.06-2.358-1.963
		c-0.619-0.902-0.929-1.851-0.929-2.845c0-1.258,0.354-2.323,1.065-3.196c0.71-0.872,1.765-1.734,3.165-2.586
		c-1.745-0.751-3.16-1.974-4.246-3.668c-1.085-1.693-1.628-3.677-1.628-5.949c0-3.651,1.151-6.482,3.454-8.49
		c2.303-2.009,5.585-3.013,9.845-3.013c0.954,0,1.953,0.065,2.998,0.197c1.045,0.133,1.831,0.27,2.358,0.411H558.472z
		 M532.026,283.262c0,1.542,0.694,2.729,2.085,3.561c1.389,0.832,3.342,1.248,5.857,1.248c3.896,0,6.797-0.559,8.704-1.674
		c1.907-1.116,2.86-2.598,2.86-4.443c0-1.461-0.522-2.501-1.567-3.119c-1.045-0.619-2.987-0.929-5.827-0.929h-5.417
		c-2.05,0-3.678,0.482-4.885,1.446C532.63,280.314,532.026,281.618,532.026,283.262z M535.099,255.264
		c0,2.11,0.543,3.733,1.629,4.869c1.085,1.137,2.642,1.704,4.671,1.704c4.139,0,6.208-2.211,6.208-6.634
		c0-2.191-0.513-3.88-1.536-5.067c-1.025-1.187-2.582-1.78-4.672-1.78c-2.069,0-3.637,0.589-4.702,1.766
		C535.632,251.298,535.099,253.012,535.099,255.264z"/>
	<path fill="#FFB000" d="M581.783,243.761c1.44,0,2.627,0.102,3.561,0.304l-0.7,6.665c-1.015-0.243-2.069-0.365-3.165-0.365
		c-2.86,0-5.179,0.934-6.954,2.8c-1.775,1.867-2.662,4.291-2.662,7.273v17.59h-7.152v-33.658h5.6l0.943,5.935h0.365
		c1.116-2.009,2.572-3.602,4.367-4.778C577.781,244.349,579.714,243.761,581.783,243.761z"/>
	<path fill="#FFB000" d="M612.641,278.027l-1.431-4.687h-0.243c-1.623,2.05-3.256,3.444-4.899,4.185s-3.754,1.11-6.33,1.11
		c-3.308,0-5.889-0.893-7.745-2.678s-2.784-4.311-2.784-7.578c0-3.469,1.288-6.086,3.864-7.852
		c2.576-1.765,6.502-2.729,11.777-2.891l5.813-0.183v-1.796c0-2.15-0.503-3.758-1.507-4.823s-2.562-1.598-4.672-1.598
		c-1.725,0-3.378,0.254-4.96,0.761c-1.583,0.508-3.104,1.106-4.565,1.796l-2.313-5.113c1.826-0.953,3.824-1.679,5.995-2.176
		s4.22-0.745,6.147-0.745c4.28,0,7.512,0.933,9.692,2.8c2.181,1.866,3.271,4.798,3.271,8.795v22.672H612.641z M601.99,273.158
		c2.597,0,4.682-0.726,6.254-2.176s2.358-3.484,2.358-6.102v-2.922l-4.321,0.183c-3.368,0.122-5.817,0.685-7.35,1.689
		c-1.532,1.004-2.298,2.541-2.298,4.61c0,1.501,0.446,2.662,1.34,3.484C598.866,272.747,600.205,273.158,601.99,273.158z"/>
	<path fill="#FFB000" d="M640.274,272.854c1.745,0,3.49-0.273,5.234-0.821v5.387c-0.791,0.345-1.811,0.634-3.058,0.867
		c-1.248,0.232-2.541,0.35-3.881,0.35c-6.776,0-10.164-3.57-10.164-10.712v-18.138h-4.596v-3.165l4.931-2.617l2.435-7.121h4.412
		v7.486h9.587v5.417h-9.587v18.016c0,1.725,0.432,2.998,1.294,3.819C637.744,272.443,638.875,272.854,640.274,272.854z"/>
	<path fill="#FFB000" d="M666.933,278.636c-5.234,0-9.327-1.526-12.279-4.58c-2.952-3.053-4.428-7.258-4.428-12.614
		c0-5.498,1.369-9.819,4.108-12.964c2.738-3.145,6.502-4.717,11.29-4.717c4.443,0,7.953,1.349,10.529,4.047
		c2.577,2.699,3.865,6.411,3.865,11.139v3.865H657.59c0.102,3.267,0.983,5.777,2.647,7.531c1.663,1.756,4.007,2.633,7.03,2.633
		c1.988,0,3.839-0.188,5.554-0.563c1.714-0.375,3.556-0.999,5.523-1.871v5.813c-1.745,0.832-3.51,1.42-5.295,1.765
		C671.264,278.464,669.225,278.636,666.933,278.636z M665.625,249.178c-2.272,0-4.093,0.72-5.463,2.16
		c-1.369,1.441-2.187,3.541-2.449,6.3h15.276c-0.04-2.779-0.71-4.885-2.008-6.314C669.682,249.893,667.897,249.178,665.625,249.178z
		"/>
</g>
<g enable-background="new    ">
	<g>
		<path fill="#49ACE1" d="M788.964,278.027l-4.443-12.355h-17.012l-4.352,12.355h-7.669l16.646-44.675h7.912l16.647,44.675H788.964z
			 M782.603,259.402l-4.169-12.112c-0.305-0.811-0.726-2.089-1.263-3.834c-0.538-1.745-0.908-3.022-1.111-3.835
			c-0.548,2.496-1.35,5.225-2.404,8.187l-4.017,11.595H782.603z"/>
		<path fill="#49ACE1" d="M825.544,278.027l-1.004-4.413h-0.365c-0.994,1.563-2.409,2.79-4.245,3.683
			c-1.837,0.893-3.931,1.339-6.284,1.339c-4.078,0-7.121-1.014-9.13-3.043c-2.009-2.028-3.013-5.103-3.013-9.221v-22.003h7.212
			v20.755c0,2.577,0.527,4.509,1.583,5.797c1.055,1.289,2.708,1.933,4.96,1.933c3.003,0,5.209-0.897,6.619-2.693
			c1.41-1.795,2.115-4.803,2.115-9.022v-16.769h7.183v33.658H825.544z"/>
		<path fill="#49ACE1" d="M853.906,272.854c1.745,0,3.49-0.273,5.234-0.821v5.387c-0.791,0.345-1.811,0.634-3.058,0.867
			c-1.248,0.232-2.541,0.35-3.881,0.35c-6.776,0-10.164-3.57-10.164-10.712v-18.138h-4.596v-3.165l4.931-2.617l2.435-7.121h4.412
			v7.486h9.587v5.417h-9.587v18.016c0,1.725,0.432,2.998,1.294,3.819C851.376,272.443,852.506,272.854,853.906,272.854z"/>
		<path fill="#49ACE1" d="M895.72,261.138c0,5.498-1.41,9.789-4.229,12.872c-2.82,3.085-6.746,4.626-11.778,4.626
			c-3.145,0-5.924-0.71-8.338-2.13c-2.415-1.42-4.271-3.459-5.569-6.117c-1.299-2.657-1.947-5.741-1.947-9.251
			c0-5.458,1.399-9.719,4.199-12.782s6.746-4.595,11.838-4.595c4.87,0,8.724,1.566,11.564,4.701S895.72,255.822,895.72,261.138z
			 M871.222,261.138c0,7.771,2.871,11.655,8.612,11.655c5.681,0,8.521-3.885,8.521-11.655c0-7.689-2.861-11.534-8.582-11.534
			c-3.003,0-5.179,0.994-6.528,2.982S871.222,257.425,871.222,261.138z"/>
		<path fill="#49ACE1" d="M932.3,278.027h-7.182v-20.755c0-2.576-0.487-4.499-1.461-5.767c-0.974-1.269-2.495-1.902-4.565-1.902
			c-2.759,0-4.782,0.897-6.071,2.693c-1.288,1.795-1.932,4.783-1.932,8.962v16.769h-7.152v-33.658h5.6l1.005,4.412h0.365
			c0.933-1.602,2.287-2.84,4.063-3.712s3.728-1.309,5.858-1.309c5.173,0,8.602,1.765,10.286,5.295h0.486
			c0.994-1.663,2.395-2.962,4.2-3.896c1.806-0.933,3.875-1.399,6.208-1.399c4.018,0,6.943,1.015,8.78,3.043
			c1.836,2.029,2.754,5.123,2.754,9.282v21.941h-7.151v-20.755c0-2.576-0.492-4.499-1.477-5.767
			c-0.984-1.269-2.511-1.902-4.58-1.902c-2.779,0-4.813,0.867-6.102,2.602c-1.289,1.735-1.933,4.397-1.933,7.989V278.027z"/>
		<path fill="#49ACE1" d="M984.584,278.027l-1.431-4.687h-0.243c-1.623,2.05-3.256,3.444-4.899,4.185s-3.754,1.11-6.33,1.11
			c-3.308,0-5.889-0.893-7.745-2.678s-2.784-4.311-2.784-7.578c0-3.469,1.288-6.086,3.864-7.852
			c2.576-1.765,6.502-2.729,11.777-2.891l5.813-0.183v-1.796c0-2.15-0.503-3.758-1.507-4.823s-2.562-1.598-4.672-1.598
			c-1.725,0-3.378,0.254-4.96,0.761c-1.583,0.508-3.104,1.106-4.565,1.796l-2.313-5.113c1.826-0.953,3.824-1.679,5.995-2.176
			s4.22-0.745,6.147-0.745c4.28,0,7.512,0.933,9.692,2.8c2.181,1.866,3.271,4.798,3.271,8.795v22.672H984.584z M973.932,273.158
			c2.597,0,4.682-0.726,6.254-2.176s2.358-3.484,2.358-6.102v-2.922l-4.321,0.183c-3.368,0.122-5.817,0.685-7.35,1.689
			c-1.532,1.004-2.298,2.541-2.298,4.61c0,1.501,0.446,2.662,1.34,3.484C970.808,272.747,972.147,273.158,973.932,273.158z"/>
		<path fill="#49ACE1" d="M1012.216,272.854c1.745,0,3.49-0.273,5.234-0.821v5.387c-0.791,0.345-1.811,0.634-3.058,0.867
			c-1.248,0.232-2.541,0.35-3.881,0.35c-6.776,0-10.164-3.57-10.164-10.712v-18.138h-4.596v-3.165l4.931-2.617l2.435-7.121h4.412
			v7.486h9.587v5.417h-9.587v18.016c0,1.725,0.432,2.998,1.294,3.819C1009.686,272.443,1010.817,272.854,1012.216,272.854z"/>
		<path fill="#49ACE1" d="M1038.876,278.636c-5.234,0-9.327-1.526-12.279-4.58c-2.952-3.053-4.428-7.258-4.428-12.614
			c0-5.498,1.369-9.819,4.108-12.964c2.738-3.145,6.502-4.717,11.29-4.717c4.443,0,7.953,1.349,10.529,4.047
			c2.577,2.699,3.865,6.411,3.865,11.139v3.865h-22.429c0.102,3.267,0.983,5.777,2.647,7.531c1.663,1.756,4.007,2.633,7.03,2.633
			c1.988,0,3.839-0.188,5.554-0.563c1.714-0.375,3.556-0.999,5.523-1.871v5.813c-1.745,0.832-3.51,1.42-5.295,1.765
			C1043.207,278.464,1041.168,278.636,1038.876,278.636z M1037.567,249.178c-2.272,0-4.093,0.72-5.463,2.16
			c-1.369,1.441-2.187,3.541-2.449,6.3h15.276c-0.04-2.779-0.71-4.885-2.008-6.314
			C1041.625,249.893,1039.839,249.178,1037.567,249.178z"/>
	</g>
	<g>
		<path fill="#49ACE1" d="M788.964,278.027l-4.443-12.355h-17.012l-4.352,12.355h-7.669l16.646-44.675h7.912l16.647,44.675H788.964z
			 M782.603,259.402l-4.169-12.112c-0.305-0.811-0.726-2.089-1.263-3.834c-0.538-1.745-0.908-3.022-1.111-3.835
			c-0.548,2.496-1.35,5.225-2.404,8.187l-4.017,11.595H782.603z"/>
		<path fill="#49ACE1" d="M825.544,278.027l-1.004-4.413h-0.365c-0.994,1.563-2.409,2.79-4.245,3.683
			c-1.837,0.893-3.931,1.339-6.284,1.339c-4.078,0-7.121-1.014-9.13-3.043c-2.009-2.028-3.013-5.103-3.013-9.221v-22.003h7.212
			v20.755c0,2.577,0.527,4.509,1.583,5.797c1.055,1.289,2.708,1.933,4.96,1.933c3.003,0,5.209-0.897,6.619-2.693
			c1.41-1.795,2.115-4.803,2.115-9.022v-16.769h7.183v33.658H825.544z"/>
		<path fill="#49ACE1" d="M853.906,272.854c1.745,0,3.49-0.273,5.234-0.821v5.387c-0.791,0.345-1.811,0.634-3.058,0.867
			c-1.248,0.232-2.541,0.35-3.881,0.35c-6.776,0-10.164-3.57-10.164-10.712v-18.138h-4.596v-3.165l4.931-2.617l2.435-7.121h4.412
			v7.486h9.587v5.417h-9.587v18.016c0,1.725,0.432,2.998,1.294,3.819C851.376,272.443,852.506,272.854,853.906,272.854z"/>
		<path fill="#49ACE1" d="M895.72,261.138c0,5.498-1.41,9.789-4.229,12.872c-2.82,3.085-6.746,4.626-11.778,4.626
			c-3.145,0-5.924-0.71-8.338-2.13c-2.415-1.42-4.271-3.459-5.569-6.117c-1.299-2.657-1.947-5.741-1.947-9.251
			c0-5.458,1.399-9.719,4.199-12.782s6.746-4.595,11.838-4.595c4.87,0,8.724,1.566,11.564,4.701S895.72,255.822,895.72,261.138z
			 M871.222,261.138c0,7.771,2.871,11.655,8.612,11.655c5.681,0,8.521-3.885,8.521-11.655c0-7.689-2.861-11.534-8.582-11.534
			c-3.003,0-5.179,0.994-6.528,2.982S871.222,257.425,871.222,261.138z"/>
		<path fill="#49ACE1" d="M932.3,278.027h-7.182v-20.755c0-2.576-0.487-4.499-1.461-5.767c-0.974-1.269-2.495-1.902-4.565-1.902
			c-2.759,0-4.782,0.897-6.071,2.693c-1.288,1.795-1.932,4.783-1.932,8.962v16.769h-7.152v-33.658h5.6l1.005,4.412h0.365
			c0.933-1.602,2.287-2.84,4.063-3.712s3.728-1.309,5.858-1.309c5.173,0,8.602,1.765,10.286,5.295h0.486
			c0.994-1.663,2.395-2.962,4.2-3.896c1.806-0.933,3.875-1.399,6.208-1.399c4.018,0,6.943,1.015,8.78,3.043
			c1.836,2.029,2.754,5.123,2.754,9.282v21.941h-7.151v-20.755c0-2.576-0.492-4.499-1.477-5.767
			c-0.984-1.269-2.511-1.902-4.58-1.902c-2.779,0-4.813,0.867-6.102,2.602c-1.289,1.735-1.933,4.397-1.933,7.989V278.027z"/>
		<path fill="#49ACE1" d="M984.584,278.027l-1.431-4.687h-0.243c-1.623,2.05-3.256,3.444-4.899,4.185s-3.754,1.11-6.33,1.11
			c-3.308,0-5.889-0.893-7.745-2.678s-2.784-4.311-2.784-7.578c0-3.469,1.288-6.086,3.864-7.852
			c2.576-1.765,6.502-2.729,11.777-2.891l5.813-0.183v-1.796c0-2.15-0.503-3.758-1.507-4.823s-2.562-1.598-4.672-1.598
			c-1.725,0-3.378,0.254-4.96,0.761c-1.583,0.508-3.104,1.106-4.565,1.796l-2.313-5.113c1.826-0.953,3.824-1.679,5.995-2.176
			s4.22-0.745,6.147-0.745c4.28,0,7.512,0.933,9.692,2.8c2.181,1.866,3.271,4.798,3.271,8.795v22.672H984.584z M973.932,273.158
			c2.597,0,4.682-0.726,6.254-2.176s2.358-3.484,2.358-6.102v-2.922l-4.321,0.183c-3.368,0.122-5.817,0.685-7.35,1.689
			c-1.532,1.004-2.298,2.541-2.298,4.61c0,1.501,0.446,2.662,1.34,3.484C970.808,272.747,972.147,273.158,973.932,273.158z"/>
		<path fill="#49ACE1" d="M1012.216,272.854c1.745,0,3.49-0.273,5.234-0.821v5.387c-0.791,0.345-1.811,0.634-3.058,0.867
			c-1.248,0.232-2.541,0.35-3.881,0.35c-6.776,0-10.164-3.57-10.164-10.712v-18.138h-4.596v-3.165l4.931-2.617l2.435-7.121h4.412
			v7.486h9.587v5.417h-9.587v18.016c0,1.725,0.432,2.998,1.294,3.819C1009.686,272.443,1010.817,272.854,1012.216,272.854z"/>
		<path fill="#49ACE1" d="M1038.876,278.636c-5.234,0-9.327-1.526-12.279-4.58c-2.952-3.053-4.428-7.258-4.428-12.614
			c0-5.498,1.369-9.819,4.108-12.964c2.738-3.145,6.502-4.717,11.29-4.717c4.443,0,7.953,1.349,10.529,4.047
			c2.577,2.699,3.865,6.411,3.865,11.139v3.865h-22.429c0.102,3.267,0.983,5.777,2.647,7.531c1.663,1.756,4.007,2.633,7.03,2.633
			c1.988,0,3.839-0.188,5.554-0.563c1.714-0.375,3.556-0.999,5.523-1.871v5.813c-1.745,0.832-3.51,1.42-5.295,1.765
			C1043.207,278.464,1041.168,278.636,1038.876,278.636z M1037.567,249.178c-2.272,0-4.093,0.72-5.463,2.16
			c-1.369,1.441-2.187,3.541-2.449,6.3h15.276c-0.04-2.779-0.71-4.885-2.008-6.314
			C1041.625,249.893,1039.839,249.178,1037.567,249.178z"/>
	</g>
</g>
<circle fill="#20BDB2" enable-background="new    " cx="371.231" cy="258.727" r="7.684"/>
<circle fill="#20BDB2" enable-background="new    " cx="720.412" cy="258.727" r="7.684"/>
</svg>
